<svg width="124" height="107" viewBox="0 0 124 107" fill="none" xmlns="http://www.w3.org/2000/svg">
<g clip-path="url(#clip0_1148_4200)">
<g clip-path="url(#clip1_1148_4200)">
<path d="M116.815 77.2286C117.874 77.7294 117.404 79.5059 116.529 80.1823C113.478 82.5817 109.989 84.3838 106.243 85.4937C105.983 85.4983 105.724 85.4425 105.487 85.3307C105.251 85.2189 105.043 85.0542 104.882 84.8499C104.882 84.8499 104.882 84.8499 104.125 84.4923C104.127 84.2079 104.19 83.928 104.311 83.6717C104.433 83.4154 104.609 83.1888 104.828 83.0073L108.642 80.8133C101.472 80.282 94.4712 78.286 88.0824 74.952C81.6937 71.6179 76.0564 67.0184 71.5277 61.4449C66.6524 55.65 62.7348 49.1353 59.9232 42.1472C58.6265 38.6267 57.5514 35.0293 56.6275 31.5033C55.5198 27.7015 55.3768 23.7012 56.2113 19.8589C56.7731 18.6709 58.2533 18.2807 58.7395 19.6008C59.8221 22.8116 60.6176 26.1064 61.1168 29.447C61.7963 32.9832 62.8222 36.4504 64.1801 39.7994C66.6244 46.1983 70.0188 52.2133 74.2503 57.6446C79.0595 63.5499 84.9208 68.5396 91.5379 72.3615C97.7601 75.6856 104.56 77.7904 111.559 78.5587C110.046 77.8434 108.533 77.1281 107.442 75.5217C106.351 73.9154 103.396 72.3362 103.25 69.905C103.207 69.6573 103.228 69.4037 103.312 69.1681C103.395 68.9325 103.538 68.7226 103.727 68.5578C103.916 68.393 104.145 68.2788 104.392 68.2259C104.639 68.173 104.897 68.1831 105.141 68.2552C107.258 69.2567 108.501 70.9346 110.186 72.4585C112.281 74.2006 114.496 75.7947 116.815 77.2286Z" fill="#6A9241"/>
</g>
</g>
<defs>
<clipPath id="clip0_1148_4200">
<rect width="124" height="107" fill="white"/>
</clipPath>
<clipPath id="clip1_1148_4200">
<rect width="80.8186" height="40.4093" fill="white" transform="matrix(0.90401 0.427512 0.427512 -0.90401 40 54.5304)"/>
</clipPath>
</defs>
</svg>
