<?xml version="1.0" encoding="UTF-8"?>
<svg id="Layer_1" xmlns="http://www.w3.org/2000/svg" version="1.1" viewBox="0 0 285.15 98.36">
  <!-- Generator: Adobe Illustrator 29.4.0, SVG Export Plug-In . SVG Version: 2.1.0 Build 152)  -->
  <path d="M70.86,54.02c-.58-.38-2.27-.15-2.54-1.61-.31-1.65.73-1.71,1.06-2.48.3-.71,0-1.78,1.07-2.24,1.49-.63,1.84.6,2.53.78s1.49-.51,2.3.78c.81,1.29-.48,1.83-.51,2.22s1.29,1.76.43,2.87c-.55.7-1.27.08-1.76.16-.35.05-.6.61-1.17.59-1.06-.04-1.1-.86-1.41-1.06ZM71.64,50.4c-.14-.15.78-2.57-.95-1.29,1.47,2.31-1.08,1.33-1.19,2.61-.13,1.57,1.26.55,1.74.84.81.49.38,1.42,1.23,1.17.17-.05.21-.62.49-.71l1.29.47c.07-1.06-.58-1.43-1.42-1.78.01-.2.39-.85.55-.99.36-.32,1.18-.12.88-.9-.46-1.17-1.51,1.51-2.6.59Z"/>
  <path d="M73.56,58.41c.19.17,1.83-.1,2.06,1.4-.67,1.64.07,4.13-2.58,3.27-.57-.18-.83-.81-1.17-.96-.9-.4-2.04.29-2.45-1.35-.23-.91.42-1.1.66-1.63.26-.57.03-1.22.71-1.66.62-.39,2.17-.37,2.61.27.12.18.08.57.17.65ZM73.12,59.09c-.33-.4-.11-1.39-1.48-.76-.63.29-.17.85-.28,1.01-.11.18-1,.39-.87,1.09.16.85,1.22.41,1.75.6.71.25.92,1.13,1.77.97l-.25-1.75.49-.49c-.21-.4-.92-.42-1.12-.66Z"/>
  <g>
    <path d="M21.03,22.89c.05.09,1.26.76,1.7,1.26.97,1.1,1.25,2.04,1.56,3.41.07.28-.18.43.35.36,5.85-6.54,13.78-12.07,22.73-13.02,6.51-.69,12.69,0,17.75,4.5,1.62,1.45,3.86,6.28,4.55,8.47,2.58,8.09.08,13.31-3.68,20.33-.73,1.35-6.07,9.39-5.25,10.26,2.16-.59,3.46-.09,3.07,2.37.9-.05,2.1.03,2.84.6.67.51.62,1.41.95,1.65.75.53,2.26.12,2.12,2.1-.1,1.51-1.14,1.45-1.41,1.82-.08.1.8,1.06-.04,2.43-.62,1.02-1.67.98-1.82,1.14-.09.1-.09.82-.31,1.23-1.02,1.93-5.76,1.46-7.72,2.23-1.25.49-3.9,2.58-5.35,3.41-4.61,2.62-12.1,6.49-17.35,7.04-2.15.22-2.78-.39-4.26-1.74-3.22-2.93-5.45-7.22-8.27-10.54l-3.26,2.66c-.51,2.5-.72,5.05-1.2,7.56-.4,2.11-.91,5.71-1.64,7.59-.41,1.04-.74,1.25-1.92,1.14-.27-.06-.28-.54-.27-.75.11-1.4.92-3.61,1.22-5.13,1.29-6.6,2.25-13.35,2.91-20.05,1.01-10.24,1.55-20.62.95-30.89-1.66.96-4.29.48-5.54-.96-.48-.55-.68-1.63-1.11-2.2-.4-.52-.87-.55-1.28-1.32-.95-1.76-.45-3.6.47-5.24,1.14-2.02,3.88-2.6,6.05-2.59-.41-2.45-.74-4.92-1.3-7.34-.36-1.58-1.65-4.66-1.77-5.82-.17-1.6,1.47-1.35,2.14,0,.94,1.9,1.73,5.76,2.24,7.94.24,1.02.91,5.75,1.12,6.1ZM39.44,68.16c4-1.76,8.26-2.85,12.48-3.97.47-.13.98.03,1.48-.18.47-.2,1.15-1.44,1.66-1.9,1.02-.93,2.31-1.69,3.44-2.48,1.31-11.08,12.94-17.89,9.7-29.83-.61-2.24-2.75-7.4-4.38-8.88-8.56-7.82-24.3-3.58-32.31,3.21-1.95,1.66-3.84,3.83-5.8,5.56-.57.51-3.67,2.73-3.73,3.1l.22,4.67c2.38,1.72,3.6,4.36,5.07,6.8,2.97-.65,1.64-1.24,1.51-3.43-.08-1.33.5-2.66.47-3.33-.02-.39-1.18-1.87-1.35-2.89-.69-4.31,3.74-9.94,7.73-6.08.73.71.7,1.59,1.68,2.11,2.96,1.57,8.44.9,11.45-.39,2.27-.97,6.29-4.5,8.33-4.48,1.02.01,1.34,1.1.71,1.16-.12.01-.45-.24-.72-.21-1.33.13-4.81,3.01-6.35,3.84-1.07.58-2.26,1.17-3.47,1.38-.11.62.1.37.34.49,1.12.59,2.7,1.2,2.98,2.58-1.89-.43-3.44-2.01-5.38-2.31-1.56-.24-3.33.08-4.91-.06-.98-.09-3.08-.96-3.56-.93-.45.03-.68.62-1.36.43-.82-.23-.39-1.85-1.74-2.54-2.53-1.31-4.56,3.66-3.37,5.74.42.72,1.58,1.01,1.64,1.7-.1.8-.75,1.06-.91,1.94-.13.72-.16,2.49.05,3.15.26.82,1.75,1.42.59,2.46-1.4.39-4.29,2.47-5.66,1.42-.44-.34-.27-.97-.72-1.05-1.64,4.07-2.03,7.73.95,11.24,2.09,2.46,4.42,2.94,7.57,2.73-.29-.63-1.57-3.29-1.15-3.76l1.15-.62c-1.04-.51-2.6-3.35-.58-3.18.52.04,2.8,2.44,3.45,2.93,2.95,2.2,8.82,5.08,12.45,3.73,2.63-.97,2.53-2.86,4-4.76.43-.56,2.08-1.91,2.19-2.32.16-.6-.56-2.03-.65-2.81-.33-2.84.89-3.99,1.12-6.19.05-.51-.26-1.04-.18-1.32.07-.26.62-.41.88-.79,1.01-1.52,2.86-7.4,2.87-9.21,0-1.63-1.66-2.03-1.57-2.58.2-1.28,2.05.1,2.36.89.47,1.16.14,3.48-.13,4.72-.38,1.74-2.8,6.42-2.75,7.42.04.84,2.89,3.6,1.29,5.09-.74.7-.83-1.76-.95-2.14-.15-.46-.58-.88-.6-1.42-.5-.07-.38-.03-.53.3-1.05,2.35-.89,5.41.2,7.72.4.84,1.35,1.58,1.27,2.63l-1.41-.37c-3.09,2.09-2.91,5.7-6.71,7.05-4.05,1.44-8.46-.63-12-2.53-.47-.25-2.14-1.5-2.28-1.52-.31-.05-.49.27-.69.45l4.63,11.84ZM17.42,32.88c1.79.13,2.12-.81,3.07-1.78.58-.6,1.24-.54,1.42-1.66.85-5.31-8.37-6.63-8.51-.82l3.08-1.42c.41.39-2,1.95-1.89,2.48.23,1.09,2.39-.74,2.68-.87s.55-.21.63.17c.21.99-1.5,2.04-2.37,2.01.65,2.32,2.13-.84,3.55-.47.29,1.34-1.17,1.37-1.66,2.36ZM34.44,60.14c-3.64.16-6.62-.24-9.09-3.1-3.43-3.97-3.19-8.95-.63-13.34l-2.33-3c-.03,8.17-.36,16.36-1.19,24.5-.22,2.17-.59,4.36-.94,6.51.64.49,3.45-3.37,4.7-2.57.5.32,0,1.55.08,1.93.05.24,1.16,1.76,1.42,2.14,1.26,1.85,6.01,8.33,7.78,9.04.62.25,1.87-.09,2.6-.22,4.41-.84,9.29-3.32,13.25-5.45.88-.47,5.5-2.96,5.81-3.44.11-.18.15-.33.07-.53l-2.34-6.57c-4.47.87-8.94,2-13.14,3.78-.68.29-.89,1.01-1.76.6-.53-.25-1.04-1.47-1.3-2.02-1.17-2.5-1.8-5.68-2.99-8.25ZM67.14,65.32h-3.91c-.07,0-.77-.27-.6-.58l.71-1.31-3.06.49c.03.79-.68,3.18-1.67,2.22.36-.93.32-2.37.6-3.17.38-1.09,2.06-1.39,2.24-2.61-1.4.43-6.6,4.54-6.57,5.76l2.08,6.08,6.62-.95c.06-.65-.71-.81-.9-1.35-.63-1.83,2.12-1.12,3.26-1.25l-2.55-1.53c.49-1.31,1.89-1.2,3.03-1.42.26-.05.76-.02.7-.36Z"/>
    <path d="M43.87,37.19c3.43-1.03,2.61,4.07-.24,3.22-1.67-.5-1.2-2.78.24-3.22Z"/>
    <path d="M51.59,47.17c2.08-2.17,3.81.89,2.04,2.39-1.32,1.12-3.64-.73-2.04-2.39Z"/>
    <path d="M42.91,50.72c.19.15.29.56.54.76.86.68,1.96,1.1,2.62,2-1.36.21-2.03-.38-2.97-1.17-.31-.26-.47-.74-.65-.88-.47-.35-1.58-.45-2.18-1.02-.55-.52-1.03-1.69,0-1.9.58,1.17,1.73,1.48,2.65,2.21Z"/>
    <path d="M32.79,31.24l.26,1.17.81-.22c1.46.89-1.79,2.08-1.99,1.87l.24-2.84.69.02Z"/>
    <path d="M46.98,45.94c.32.19.33,1.46-.02,1.8-1.03,1.02-3.11-.49-.92-.93l.03-.91.91.04Z"/>
  </g>
</svg>